<svg xmlns="http://www.w3.org/2000/svg" viewBox="0 0 140 140">
<rect width="140" height="140" fill="white" stroke="black" stroke-width="0.5" />
<circle cx="32.7042" cy="107.61" r="0.5" fill="blue" />
<circle cx="32.3041" cy="108.881" r="0.5" fill="blue" />
<circle cx="32.1012" cy="108.934" r="0.5" fill="blue" />
<circle cx="32.3659" cy="108.531" r="0.5" fill="blue" />
<circle cx="30.0823" cy="109.311" r="0.5" fill="blue" />
<circle cx="29.5384" cy="107.663" r="0.5" fill="blue" />
<circle cx="32.3237" cy="107.544" r="0.5" fill="blue" />
<circle cx="31.4635" cy="108.772" r="0.5" fill="blue" />
<circle cx="31.0695" cy="107.606" r="0.5" fill="blue" />
<circle cx="31.4908" cy="107.905" r="0.5" fill="blue" />
<circle cx="30.6258" cy="109.761" r="0.5" fill="blue" />
<circle cx="31.3268" cy="107.497" r="0.5" fill="blue" />
<circle cx="30.7537" cy="107.685" r="0.5" fill="blue" />
<circle cx="31.007" cy="108.2" r="0.5" fill="blue" />
<circle cx="32.3569" cy="107.152" r="0.5" fill="blue" />
<circle cx="31.4792" cy="108.361" r="0.5" fill="blue" />
<circle cx="31.7264" cy="109.426" r="0.5" fill="blue" />
<circle cx="31.9405" cy="106.706" r="0.5" fill="blue" />
<circle cx="30.1664" cy="107.137" r="0.5" fill="blue" />
<circle cx="31.9009" cy="109.442" r="0.5" fill="blue" />
<circle cx="29.5082" cy="107.843" r="0.5" fill="blue" />
<circle cx="31.212" cy="107.661" r="0.5" fill="blue" />
<circle cx="30.5951" cy="106.246" r="0.5" fill="blue" />
<circle cx="30.9791" cy="107.701" r="0.5" fill="blue" />
<circle cx="31.2536" cy="107.456" r="0.5" fill="blue" />
<circle cx="30.773" cy="108.445" r="0.5" fill="blue" />
<circle cx="32.0126" cy="108.43" r="0.5" fill="blue" />
<circle cx="31" cy="108" r="0.5" fill="blue" />
<circle cx="30.8323" cy="107.891" r="0.5" fill="blue" />
<circle cx="30.9268" cy="107.304" r="0.5" fill="blue" />
<circle cx="30.4091" cy="107.896" r="0.5" fill="blue" />
<circle cx="31.8699" cy="108.966" r="0.5" fill="blue" />
<circle cx="31.0853" cy="108.695" r="0.5" fill="blue" />
<circle cx="29.5619" cy="107.299" r="0.5" fill="blue" />
<circle cx="32.4724" cy="107.714" r="0.5" fill="blue" />
<circle cx="31.1172" cy="108.276" r="0.5" fill="blue" />
<circle cx="31.3078" cy="107.154" r="0.5" fill="blue" />
<circle cx="31.7552" cy="108.933" r="0.5" fill="blue" />
<circle cx="30.8784" cy="108.689" r="0.5" fill="blue" />
<circle cx="31.3625" cy="107.831" r="0.5" fill="blue" />
<circle cx="30.6947" cy="109.571" r="0.5" fill="blue" />
<circle cx="29.8002" cy="107.979" r="0.5" fill="blue" />
<circle cx="30.7153" cy="108.639" r="0.5" fill="blue" />
<circle cx="32.4417" cy="107.099" r="0.5" fill="blue" />
<circle cx="31.3374" cy="109.462" r="0.5" fill="blue" />
<circle cx="31.3268" cy="107.497" r="0.5" fill="blue" />
<circle cx="30.3153" cy="107.855" r="0.5" fill="blue" />
<circle cx="29.6006" cy="108.776" r="0.5" fill="blue" />
<circle cx="30.9581" cy="107.201" r="0.5" fill="blue" />
<circle cx="30.7752" cy="107.444" r="0.5" fill="blue" />
<circle cx="31" cy="108" r="0.5" fill="blue" />
<circle cx="30.5879" cy="109.02" r="0.5" fill="blue" />
<circle cx="30.3106" cy="107.422" r="0.5" fill="blue" />
<circle cx="30.5245" cy="108.154" r="0.5" fill="blue" />
<circle cx="30.8366" cy="108.252" r="0.5" fill="blue" />
<circle cx="31.2782" cy="108.112" r="0.5" fill="blue" />
<circle cx="29.7876" cy="108.7" r="0.5" fill="blue" />
<circle cx="31.0899" cy="107.956" r="0.5" fill="blue" />
<circle cx="32.4489" cy="108.388" r="0.5" fill="blue" />
<circle cx="31.1766" cy="107.906" r="0.5" fill="blue" />
<circle cx="31.4881" cy="106.904" r="0.5" fill="blue" />
<circle cx="31.4848" cy="107.125" r="0.5" fill="blue" />
<circle cx="31.3746" cy="108.927" r="0.5" fill="blue" />
<circle cx="32.4672" cy="107.688" r="0.5" fill="blue" />
<circle cx="31" cy="108" r="0.5" fill="blue" />
<circle cx="31.9031" cy="108.935" r="0.5" fill="blue" />
<circle cx="29.5446" cy="107.637" r="0.5" fill="blue" />
<circle cx="31.1259" cy="108.155" r="0.5" fill="blue" />
<circle cx="30.9948" cy="107.7" r="0.5" fill="blue" />
<circle cx="31.9193" cy="107.229" r="0.5" fill="blue" />
<circle cx="30.1224" cy="107.182" r="0.5" fill="blue" />
<circle cx="30.4554" cy="108.839" r="0.5" fill="blue" />
<circle cx="31.099" cy="107.986" r="0.5" fill="blue" />
<circle cx="30.8425" cy="108.682" r="0.5" fill="blue" />
<circle cx="30.2882" cy="106.238" r="0.5" fill="blue" />
<circle cx="31.1509" cy="108.131" r="0.5" fill="blue" />
<circle cx="30.3708" cy="108.307" r="0.5" fill="blue" />
<circle cx="30.5702" cy="106.987" r="0.5" fill="blue" />
<circle cx="30.1758" cy="109.487" r="0.5" fill="blue" />
<circle cx="29.6136" cy="107.805" r="0.5" fill="blue" />
<circle cx="30.2359" cy="106.948" r="0.5" fill="blue" />
<circle cx="29.3165" cy="107.763" r="0.5" fill="blue" />
<circle cx="30.5787" cy="108.559" r="0.5" fill="blue" />
<circle cx="31.2007" cy="108.223" r="0.5" fill="blue" />
<circle cx="30.9703" cy="109.7" r="0.5" fill="blue" />
<circle cx="29.6763" cy="108.456" r="0.5" fill="blue" />
<circle cx="31" cy="108" r="0.5" fill="blue" />
<circle cx="31.6" cy="109.039" r="0.5" fill="blue" />
<circle cx="30.1053" cy="109.326" r="0.5" fill="blue" />
<circle cx="30.134" cy="107.5" r="0.5" fill="blue" />
<circle cx="31" cy="108" r="0.5" fill="blue" />
<circle cx="31" cy="108" r="0.5" fill="blue" />
<circle cx="30.3982" cy="108.799" r="0.5" fill="blue" />
<circle cx="31.3993" cy="107.699" r="0.5" fill="blue" />
<circle cx="30.0024" cy="107.93" r="0.5" fill="blue" />
<circle cx="32.2361" cy="108.657" r="0.5" fill="blue" />
<circle cx="31.3009" cy="107.601" r="0.5" fill="blue" />
<circle cx="30.9515" cy="107.912" r="0.5" fill="blue" />
<circle cx="31.6694" cy="108.205" r="0.5" fill="blue" />
<circle cx="30.1521" cy="109.357" r="0.5" fill="blue" />
<circle cx="29.3659" cy="108.469" r="0.5" fill="blue" />
<circle cx="30.9795" cy="108.1" r="1" fill="black" />
<circle cx="34.4474" cy="110.005" r="0.5" fill="red" />
<circle cx="33.8344" cy="110.893" r="0.5" fill="red" />
<circle cx="32.8148" cy="108.812" r="0.5" fill="red" />
<circle cx="35.7825" cy="109.251" r="0.5" fill="red" />
<circle cx="34.0419" cy="110.199" r="0.5" fill="red" />
<circle cx="34.4663" cy="108.622" r="0.5" fill="red" />
<circle cx="33.35" cy="110.126" r="0.5" fill="red" />
<circle cx="34.4678" cy="110.53" r="0.5" fill="red" />
<circle cx="35.3106" cy="109.918" r="0.5" fill="red" />
<circle cx="34.85" cy="107.528" r="0.5" fill="red" />
<circle cx="33.5757" cy="109.424" r="0.5" fill="red" />
<circle cx="34" cy="109" r="0.5" fill="red" />
<circle cx="34.0946" cy="109.033" r="0.5" fill="red" />
<circle cx="32.5077" cy="110.007" r="0.5" fill="red" />
<circle cx="33.4266" cy="107.506" r="0.5" fill="red" />
<circle cx="35.0903" cy="108.292" r="0.5" fill="red" />
<circle cx="35.1491" cy="109.964" r="0.5" fill="red" />
<circle cx="33.9703" cy="107.3" r="0.5" fill="red" />
<circle cx="34.0835" cy="109.594" r="0.5" fill="red" />
<circle cx="33.8" cy="108.654" r="0.5" fill="red" />
<circle cx="34.0558" cy="108.202" r="0.5" fill="red" />
<circle cx="33.7184" cy="107.222" r="0.5" fill="red" />
<circle cx="33.55" cy="109.536" r="0.5" fill="red" />
<circle cx="33.6405" cy="108.825" r="0.5" fill="red" />
<circle cx="34.1749" cy="109.097" r="0.5" fill="red" />
<circle cx="33.144" cy="108.722" r="0.5" fill="red" />
<circle cx="34.1103" cy="109.385" r="0.5" fill="red" />
<circle cx="33.6645" cy="109.497" r="0.5" fill="red" />
<circle cx="34.5663" cy="109.411" r="0.5" fill="red" />
<circle cx="34.2237" cy="108.668" r="0.5" fill="red" />
<circle cx="34.1392" cy="109.99" r="0.5" fill="red" />
<circle cx="34.4678" cy="107.47" r="0.5" fill="red" />
<circle cx="34.2954" cy="109.052" r="0.5" fill="red" />
<circle cx="34.197" cy="108.965" r="0.5" fill="red" />
<circle cx="34.7913" cy="108.236" r="0.5" fill="red" />
<circle cx="32.6074" cy="109.975" r="0.5" fill="red" />
<circle cx="32.6416" cy="108.661" r="0.5" fill="red" />
<circle cx="33.8044" cy="108.958" r="0.5" fill="red" />
<circle cx="33.4983" cy="107.693" r="0.5" fill="red" />
<circle cx="35.2361" cy="109.657" r="0.5" fill="red" />
<circle cx="34.0391" cy="108.908" r="0.5" fill="red" />
<circle cx="33.2807" cy="109.695" r="0.5" fill="red" />
<circle cx="34.3804" cy="108.184" r="0.5" fill="red" />
<circle cx="32.8016" cy="109.063" r="0.5" fill="red" />
<circle cx="32.4002" cy="109.028" r="0.5" fill="red" />
<circle cx="32.5906" cy="109.951" r="0.5" fill="red" />
<circle cx="33.1396" cy="107.771" r="0.5" fill="red" />
<circle cx="33.2044" cy="108.916" r="0.5" fill="red" />
<circle cx="35.4375" cy="110.083" r="0.5" fill="red" />
<circle cx="33.5643" cy="109.671" r="0.5" fill="red" />
<circle cx="35.0607" cy="110.061" r="0.5" fill="red" />
<circle cx="34.6632" cy="108.553" r="0.5" fill="red" />
<circle cx="34.5734" cy="107.506" r="0.5" fill="red" />
<circle cx="34.0628" cy="108.102" r="0.5" fill="red" />
<circle cx="34.8866" cy="109.951" r="0.5" fill="red" />
<circle cx="35.6454" cy="108.05" r="0.5" fill="red" />
<circle cx="34.4093" cy="110.339" r="0.5" fill="red" />
<circle cx="34.2911" cy="110.369" r="0.5" fill="red" />
<circle cx="32.9676" cy="107.525" r="0.5" fill="red" />
<circle cx="35.6286" cy="109.979" r="0.5" fill="red" />
<circle cx="33.8337" cy="109.782" r="0.5" fill="red" />
<circle cx="34.7625" cy="107.826" r="0.5" fill="red" />
<circle cx="32.9874" cy="109.43" r="0.5" fill="red" />
<circle cx="33.5341" cy="107.261" r="0.5" fill="red" />
<circle cx="33.5914" cy="109.802" r="0.5" fill="red" />
<circle cx="34" cy="109" r="0.5" fill="red" />
<circle cx="33.6058" cy="110.027" r="0.5" fill="red" />
<circle cx="34.4145" cy="109.28" r="0.5" fill="red" />
<circle cx="33.0973" cy="107.802" r="0.5" fill="red" />
<circle cx="33.1082" cy="108.197" r="0.5" fill="red" />
<circle cx="34.09" cy="109.39" r="0.5" fill="red" />
<circle cx="34.1455" cy="109.685" r="0.5" fill="red" />
<circle cx="34" cy="109" r="0.5" fill="red" />
<circle cx="33.9316" cy="108.812" r="0.5" fill="red" />
<circle cx="34" cy="109" r="0.5" fill="red" />
<circle cx="32.9608" cy="108.4" r="0.5" fill="red" />
<circle cx="33.9634" cy="108.702" r="0.5" fill="red" />
<circle cx="32.5905" cy="108.487" r="0.5" fill="red" />
<circle cx="34.9508" cy="108.113" r="0.5" fill="red" />
<circle cx="33.9653" cy="109.197" r="0.5" fill="red" />
<circle cx="33.6389" cy="108.521" r="0.5" fill="red" />
<circle cx="33.5146" cy="108.647" r="0.5" fill="red" />
<circle cx="33.9168" cy="109.391" r="0.5" fill="red" />
<circle cx="33.1981" cy="109.409" r="0.5" fill="red" />
<circle cx="34.1251" cy="108.21" r="0.5" fill="red" />
<circle cx="33.0379" cy="108.467" r="0.5" fill="red" />
<circle cx="35.3908" cy="109.562" r="0.5" fill="red" />
<circle cx="33.6258" cy="110.761" r="0.5" fill="red" />
<circle cx="33.9424" cy="107.901" r="0.5" fill="red" />
<circle cx="33.5037" cy="108.939" r="0.5" fill="red" />
<circle cx="35.0973" cy="108.923" r="0.5" fill="red" />
<circle cx="33.5645" cy="107.254" r="0.5" fill="red" />
<circle cx="34.0279" cy="110.6" r="0.5" fill="red" />
<circle cx="35.599" cy="109.056" r="0.5" fill="red" />
<circle cx="33.1267" cy="109.218" r="0.5" fill="red" />
<circle cx="34.2782" cy="108.888" r="0.5" fill="red" />
<circle cx="32.6454" cy="108.95" r="0.5" fill="red" />
<circle cx="32.7866" cy="108.219" r="0.5" fill="red" />
<circle cx="32.7539" cy="108.405" r="0.5" fill="red" />
<circle cx="33.9386" cy="108.991" r="1" fill="black" />
<circle cx="24.3862" cy="101.658" r="0.5" fill="green" />
<circle cx="24.05" cy="102.645" r="0.5" fill="green" />
<circle cx="25.2911" cy="99.6306" r="0.5" fill="green" />
<circle cx="23.9294" cy="102.189" r="0.5" fill="green" />
<circle cx="25.9397" cy="101.342" r="0.5" fill="green" />
<circle cx="26.2" cy="100.279" r="0.5" fill="green" />
<circle cx="26.2948" cy="99.7496" r="0.5" fill="green" />
<circle cx="24.5332" cy="100.821" r="0.5" fill="green" />
<circle cx="24.8641" cy="99.7071" r="0.5" fill="green" />
<circle cx="25.0643" cy="100.923" r="0.5" fill="green" />
<circle cx="25.309" cy="100.486" r="0.5" fill="green" />
<circle cx="25.3327" cy="102.565" r="0.5" fill="green" />
<circle cx="26.0286" cy="101.618" r="0.5" fill="green" />
<circle cx="23.6581" cy="100.129" r="0.5" fill="green" />
<circle cx="25.3945" cy="100.191" r="0.5" fill="green" />
<circle cx="23.8674" cy="100.177" r="0.5" fill="green" />
<circle cx="26.4972" cy="99.8302" r="0.5" fill="green" />
<circle cx="23.8218" cy="100.451" r="0.5" fill="green" />
<circle cx="26.097" cy="99.977" r="0.5" fill="green" />
<circle cx="23.8509" cy="100.036" r="0.5" fill="green" />
<circle cx="26.3458" cy="100.614" r="0.5" fill="green" />
<circle cx="24.8263" cy="101.985" r="0.5" fill="green" />
<circle cx="25.424" cy="101.265" r="0.5" fill="green" />
<circle cx="23.5131" cy="101.824" r="0.5" fill="green" />
<circle cx="24.1521" cy="102.357" r="0.5" fill="green" />
<circle cx="25.2" cy="101.346" r="0.5" fill="green" />
<circle cx="24.7491" cy="100.346" r="0.5" fill="green" />
<circle cx="25.8995" cy="100.969" r="0.5" fill="green" />
<circle cx="23.9042" cy="101.096" r="0.5" fill="green" />
<circle cx="25.497" cy="99.3743" r="0.5" fill="green" />
<circle cx="23.3556" cy="101.732" r="0.5" fill="green" />
<circle cx="25.3387" cy="99.6416" r="0.5" fill="green" />
<circle cx="24.6483" cy="100.172" r="0.5" fill="green" />
<circle cx="25.0845" cy="101.181" r="0.5" fill="green" />
<circle cx="26.0725" cy="100.1" r="0.5" fill="green" />
<circle cx="24.1664" cy="100.137" r="0.5" fill="green" />
<circle cx="24.3106" cy="101.122" r="0.5" fill="green" />
<circle cx="25.6474" cy="101.625" r="0.5" fill="green" />
<circle cx="25.053" cy="101.085" r="0.5" fill="green" />
<circle cx="24.4702" cy="100.718" r="0.5" fill="green" />
<circle cx="24.9513" cy="101.397" r="0.5" fill="green" />
<circle cx="24.8698" cy="100.622" r="0.5" fill="green" />
<circle cx="24.4654" cy="101.272" r="0.5" fill="green" />
<circle cx="26.1594" cy="102.243" r="0.5" fill="green" />
<circle cx="25.2536" cy="101.544" r="0.5" fill="green" />
<circle cx="26.699" cy="101.059" r="0.5" fill="green" />
<circle cx="25.1336" cy="100.313" r="0.5" fill="green" />
<circle cx="24.0765" cy="102.182" r="0.5" fill="green" />
<circle cx="25.2366" cy="99.3165" r="0.5" fill="green" />
<circle cx="25.7641" cy="99.9483" r="0.5" fill="green" />
<circle cx="25.1113" cy="101.792" r="0.5" fill="green" />
<circle cx="25.2997" cy="101.742" r="0.5" fill="green" />
<circle cx="25.1463" cy="101.136" r="0.5" fill="green" />
<circle cx="24.6922" cy="100.606" r="0.5" fill="green" />
<circle cx="24.2014" cy="100.398" r="0.5" fill="green" />
<circle cx="25" cy="101" r="0.5" fill="green" />
<circle cx="26.1082" cy="99.5816" r="0.5" fill="green" />
<circle cx="24.3086" cy="100.891" r="0.5" fill="green" />
<circle cx="25.2877" cy="100.722" r="0.5" fill="green" />
<circle cx="25.5871" cy="101.381" r="0.5" fill="green" />
<circle cx="23.3065" cy="101.148" r="0.5" fill="green" />
<circle cx="24.6744" cy="101.945" r="0.5" fill="green" />
<circle cx="24.9281" cy="101.07" r="0.5" fill="green" />
<circle cx="24.9161" cy="101.055" r="0.5" fill="green" />
<circle cx="24.9479" cy="100.705" r="0.5" fill="green" />
<circle cx="26.6495" cy="100.589" r="0.5" fill="green" />
<circle cx="25" cy="101" r="0.5" fill="green" />
<circle cx="23.3887" cy="102.007" r="0.5" fill="green" />
<circle cx="25.1867" cy="100.928" r="0.5" fill="green" />
<circle cx="25.3064" cy="100.743" r="0.5" fill="green" />
<circle cx="25.9887" cy="100.518" r="0.5" fill="green" />
<circle cx="26.5961" cy="100.888" r="0.5" fill="green" />
<circle cx="25.1231" cy="100.842" r="0.5" fill="green" />
<circle cx="23.5744" cy="101.726" r="0.5" fill="green" />
<circle cx="26.295" cy="100.887" r="0.5" fill="green" />
<circle cx="24.5432" cy="100.797" r="0.5" fill="green" />
<circle cx="25.2279" cy="101.662" r="0.5" fill="green" />
<circle cx="24.5208" cy="100.639" r="0.5" fill="green" />
<circle cx="25" cy="101" r="0.5" fill="green" />
<circle cx="24.5885" cy="101.566" r="0.5" fill="green" />
<circle cx="24.1519" cy="100.47" r="0.5" fill="green" />
<circle cx="25" cy="101" r="0.5" fill="green" />
<circle cx="24.505" cy="101.495" r="0.5" fill="green" />
<circle cx="24.4702" cy="100.718" r="0.5" fill="green" />
<circle cx="24.9125" cy="100.951" r="0.5" fill="green" />
<circle cx="25" cy="101" r="0.5" fill="green" />
<circle cx="24.5887" cy="99.3505" r="0.5" fill="green" />
<circle cx="26.5881" cy="101.195" r="0.5" fill="green" />
<circle cx="24.8546" cy="100.738" r="0.5" fill="green" />
<circle cx="26.749" cy="101.742" r="0.5" fill="green" />
<circle cx="24.6692" cy="99.8465" r="0.5" fill="green" />
<circle cx="23.2393" cy="100.626" r="0.5" fill="green" />
<circle cx="24.5554" cy="99.7784" r="0.5" fill="green" />
<circle cx="24.7259" cy="100.878" r="0.5" fill="green" />
<circle cx="23.5112" cy="100.817" r="0.5" fill="green" />
<circle cx="25.1968" cy="100.774" r="0.5" fill="green" />
<circle cx="26.0973" cy="101.077" r="0.5" fill="green" />
<circle cx="24.9529" cy="101.899" r="0.5" fill="green" />
<circle cx="25" cy="101" r="0.5" fill="green" />
<circle cx="24.2929" cy="101.843" r="0.5" fill="green" />
<circle cx="24.9824" cy="100.912" r="1" fill="black" />
</svg>
