<svg xmlns="http://www.w3.org/2000/svg" viewBox="0 0 1000 1000">
<rect width="1000" height="1000" fill="white" stroke="black" stroke-width="5" />
<circle cx="293.8" cy="202.2" r="5" fill="blue" />
<circle cx="333.3" cy="218.5" r="5" fill="blue" />
<circle cx="574.7" cy="239.7" r="5" fill="blue" />
<circle cx="400.6" cy="220.133" r="10" fill="black" />
<circle cx="616.3" cy="631.9" r="5" fill="red" />
<circle cx="614.6" cy="701" r="5" fill="red" />
<circle cx="570.9" cy="703.1" r="5" fill="red" />
<circle cx="618.1" cy="660.5" r="5" fill="red" />
<circle cx="530.2" cy="735.8" r="5" fill="red" />
<circle cx="688.3" cy="687.1" r="5" fill="red" />
<circle cx="599.8" cy="707.4" r="5" fill="red" />
<circle cx="591.9" cy="673.9" r="5" fill="red" />
<circle cx="656.1" cy="751.3" r="5" fill="red" />
<circle cx="629.6" cy="621" r="5" fill="red" />
<circle cx="605.9" cy="773.7" r="5" fill="red" />
<circle cx="631.2" cy="743.8" r="5" fill="red" />
<circle cx="753.1" cy="608.1" r="5" fill="red" />
<circle cx="638" cy="647" r="5" fill="red" />
<circle cx="584.3" cy="656.1" r="5" fill="red" />
<circle cx="643.7" cy="736.3" r="5" fill="red" />
<circle cx="633.2" cy="676.8" r="5" fill="red" />
<circle cx="610.6" cy="681.2" r="5" fill="red" />
<circle cx="618.3" cy="653.7" r="5" fill="red" />
<circle cx="628.5" cy="687.3" r="5" fill="red" />
<circle cx="577.4" cy="660.4" r="5" fill="red" />
<circle cx="592.9" cy="670.1" r="5" fill="red" />
<circle cx="539.2" cy="723.6" r="5" fill="red" />
<circle cx="621.2" cy="666.4" r="5" fill="red" />
<circle cx="616.388" cy="685.729" r="10" fill="black" />
<circle cx="823.3" cy="828.3" r="5" fill="green" />
<circle cx="796.2" cy="774.8" r="5" fill="green" />
<circle cx="771.3" cy="808.3" r="5" fill="green" />
<circle cx="850.4" cy="856.4" r="5" fill="green" />
<circle cx="982.9" cy="724.3" r="5" fill="green" />
<circle cx="846" cy="913.8" r="5" fill="green" />
<circle cx="832.5" cy="804.5" r="5" fill="green" />
<circle cx="843.229" cy="815.771" r="10" fill="black" />
<circle cx="684.7" cy="379.9" r="5" fill="purple" />
<circle cx="679.6" cy="453.4" r="5" fill="purple" />
<circle cx="694.3" cy="373.9" r="5" fill="purple" />
<circle cx="646.3" cy="416.5" r="5" fill="purple" />
<circle cx="657.1" cy="365.1" r="5" fill="purple" />
<circle cx="632.9" cy="392.1" r="5" fill="purple" />
<circle cx="665.817" cy="396.817" r="10" fill="black" />
<circle cx="568.2" cy="524" r="5" fill="brown" />
<circle cx="582.3" cy="563.7" r="5" fill="brown" />
<circle cx="580.4" cy="535" r="5" fill="brown" />
<circle cx="561.9" cy="554.7" r="5" fill="brown" />
<circle cx="604.6" cy="499.2" r="5" fill="brown" />
<circle cx="614.8" cy="588" r="5" fill="brown" />
<circle cx="577.8" cy="567.8" r="5" fill="brown" />
<circle cx="575.6" cy="561.4" r="5" fill="brown" />
<circle cx="596.2" cy="549.6" r="5" fill="brown" />
<circle cx="596.4" cy="546" r="5" fill="brown" />
<circle cx="579.6" cy="561.6" r="5" fill="brown" />
<circle cx="607.4" cy="512.6" r="5" fill="brown" />
<circle cx="544.1" cy="565.1" r="5" fill="brown" />
<circle cx="569.9" cy="555.1" r="5" fill="brown" />
<circle cx="597.4" cy="534.8" r="5" fill="brown" />
<circle cx="562.9" cy="556.7" r="5" fill="brown" />
<circle cx="574.7" cy="508.5" r="5" fill="brown" />
<circle cx="585" cy="539" r="5" fill="brown" />
<circle cx="561.2" cy="519.4" r="5" fill="brown" />
<circle cx="587.6" cy="552" r="5" fill="brown" />
<circle cx="568.2" cy="555" r="5" fill="brown" />
<circle cx="664.8" cy="576.4" r="5" fill="brown" />
<circle cx="563.5" cy="575.3" r="5" fill="brown" />
<circle cx="573.2" cy="550.4" r="5" fill="brown" />
<circle cx="606.6" cy="589.6" r="5" fill="brown" />
<circle cx="560.8" cy="518.2" r="5" fill="brown" />
<circle cx="567" cy="515.4" r="5" fill="brown" />
<circle cx="582.67" cy="547.204" r="10" fill="black" />
<circle cx="621.2" cy="456.6" r="5" fill="orange" />
<circle cx="589.5" cy="428.7" r="5" fill="orange" />
<circle cx="590.1" cy="475.5" r="5" fill="orange" />
<circle cx="601.2" cy="491.8" r="5" fill="orange" />
<circle cx="581.3" cy="433.7" r="5" fill="orange" />
<circle cx="582" cy="378.2" r="5" fill="orange" />
<circle cx="536.1" cy="494.3" r="5" fill="orange" />
<circle cx="578.8" cy="376" r="5" fill="orange" />
<circle cx="502.4" cy="478.6" r="5" fill="orange" />
<circle cx="621.7" cy="480.1" r="5" fill="orange" />
<circle cx="527.9" cy="446.7" r="5" fill="orange" />
<circle cx="554.9" cy="408.1" r="5" fill="orange" />
<circle cx="548.4" cy="446.6" r="5" fill="orange" />
<circle cx="571" cy="484" r="5" fill="orange" />
<circle cx="596.6" cy="380.6" r="5" fill="orange" />
<circle cx="610.3" cy="448.5" r="5" fill="orange" />
<circle cx="575.9" cy="490.1" r="5" fill="orange" />
<circle cx="599.5" cy="473.9" r="5" fill="orange" />
<circle cx="586.9" cy="477.1" r="5" fill="orange" />
<circle cx="625.8" cy="471.8" r="5" fill="orange" />
<circle cx="579" cy="399.4" r="5" fill="orange" />
<circle cx="585.1" cy="394.9" r="5" fill="orange" />
<circle cx="589.1" cy="372.1" r="5" fill="orange" />
<circle cx="597.7" cy="480.5" r="5" fill="orange" />
<circle cx="581.35" cy="444.492" r="10" fill="black" />
<circle cx="145.4" cy="423.4" r="5" fill="yellow" />
<circle cx="92.7" cy="297.1" r="5" fill="yellow" />
<circle cx="66.2" cy="321.8" r="5" fill="yellow" />
<circle cx="91.3" cy="316.9" r="5" fill="yellow" />
<circle cx="175.7" cy="288.7" r="5" fill="yellow" />
<circle cx="47" cy="358" r="5" fill="yellow" />
<circle cx="102.9" cy="341.1" r="5" fill="yellow" />
<circle cx="128.6" cy="360.6" r="5" fill="yellow" />
<circle cx="211.9" cy="455.9" r="5" fill="yellow" />
<circle cx="216.1" cy="432.9" r="5" fill="yellow" />
<circle cx="58.5" cy="353.1" r="5" fill="yellow" />
<circle cx="115.1" cy="363.5" r="5" fill="yellow" />
<circle cx="91.9" cy="410.7" r="5" fill="yellow" />
<circle cx="110.9" cy="294.3" r="5" fill="yellow" />
<circle cx="234.4" cy="424.4" r="5" fill="yellow" />
<circle cx="168.1" cy="420.3" r="5" fill="yellow" />
<circle cx="227.1" cy="296.1" r="5" fill="yellow" />
<circle cx="152" cy="348" r="5" fill="yellow" />
<circle cx="168.3" cy="424.1" r="5" fill="yellow" />
<circle cx="121.6" cy="322.8" r="5" fill="yellow" />
<circle cx="156.8" cy="358.6" r="5" fill="yellow" />
<circle cx="174.2" cy="430.6" r="5" fill="yellow" />
<circle cx="155.7" cy="455.9" r="5" fill="yellow" />
<circle cx="141.9" cy="322.1" r="5" fill="yellow" />
<circle cx="134.1" cy="400.3" r="5" fill="yellow" />
<circle cx="117.6" cy="400" r="5" fill="yellow" />
<circle cx="162.2" cy="328.6" r="5" fill="yellow" />
<circle cx="111.3" cy="397.3" r="5" fill="yellow" />
<circle cx="156.3" cy="327.9" r="5" fill="yellow" />
<circle cx="123.7" cy="344.1" r="5" fill="yellow" />
<circle cx="22.2" cy="378.6" r="5" fill="yellow" />
<circle cx="65.8" cy="426.2" r="5" fill="yellow" />
<circle cx="181.3" cy="413.1" r="5" fill="yellow" />
<circle cx="144.4" cy="378" r="5" fill="yellow" />
<circle cx="172" cy="369.6" r="5" fill="yellow" />
<circle cx="193.2" cy="325.4" r="5" fill="yellow" />
<circle cx="151.9" cy="395.5" r="5" fill="yellow" />
<circle cx="61.8" cy="373.8" r="5" fill="yellow" />
<circle cx="112" cy="341.8" r="5" fill="yellow" />
<circle cx="132.1" cy="527.7" r="5" fill="yellow" />
<circle cx="167.1" cy="323.1" r="5" fill="yellow" />
<circle cx="90.5" cy="388.5" r="5" fill="yellow" />
<circle cx="104.9" cy="377.9" r="5" fill="yellow" />
<circle cx="72" cy="277.6" r="5" fill="yellow" />
<circle cx="101.1" cy="307.9" r="5" fill="yellow" />
<circle cx="135.8" cy="552.6" r="5" fill="yellow" />
<circle cx="153.7" cy="371.3" r="5" fill="yellow" />
<circle cx="119.2" cy="436" r="5" fill="yellow" />
<circle cx="97.4" cy="367.2" r="5" fill="yellow" />
<circle cx="105.1" cy="367.5" r="5" fill="yellow" />
<circle cx="112.8" cy="360" r="5" fill="yellow" />
<circle cx="85.1" cy="317.5" r="5" fill="yellow" />
<circle cx="253.2" cy="304.2" r="5" fill="yellow" />
<circle cx="92.3" cy="385.3" r="5" fill="yellow" />
<circle cx="97.2" cy="388.8" r="5" fill="yellow" />
<circle cx="184.3" cy="379.5" r="5" fill="yellow" />
<circle cx="195.7" cy="431.1" r="5" fill="yellow" />
<circle cx="83.4" cy="331.6" r="5" fill="yellow" />
<circle cx="81.4" cy="313.6" r="5" fill="yellow" />
<circle cx="187.7" cy="385.1" r="5" fill="yellow" />
<circle cx="130.8" cy="310.8" r="5" fill="yellow" />
<circle cx="57.9" cy="394.7" r="5" fill="yellow" />
<circle cx="116.6" cy="395.2" r="5" fill="yellow" />
<circle cx="129.1" cy="323.9" r="5" fill="yellow" />
<circle cx="159.2" cy="265.8" r="5" fill="yellow" />
<circle cx="181" cy="251.8" r="5" fill="yellow" />
<circle cx="91.6" cy="357.6" r="5" fill="yellow" />
<circle cx="184.4" cy="452.2" r="5" fill="yellow" />
<circle cx="179.1" cy="423.5" r="5" fill="yellow" />
<circle cx="62.7" cy="406.5" r="5" fill="yellow" />
<circle cx="128.6" cy="380.6" r="5" fill="yellow" />
<circle cx="227.2" cy="407.4" r="5" fill="yellow" />
<circle cx="206.9" cy="371.5" r="5" fill="yellow" />
<circle cx="110.1" cy="295.9" r="5" fill="yellow" />
<circle cx="90.3" cy="274.7" r="5" fill="yellow" />
<circle cx="213.1" cy="242.3" r="5" fill="yellow" />
<circle cx="126.3" cy="377.5" r="5" fill="yellow" />
<circle cx="103.7" cy="353.3" r="5" fill="yellow" />
<circle cx="153.2" cy="345.8" r="5" fill="yellow" />
<circle cx="143.2" cy="348.4" r="5" fill="yellow" />
<circle cx="114.2" cy="328" r="5" fill="yellow" />
<circle cx="101.7" cy="346.1" r="5" fill="yellow" />
<circle cx="124.4" cy="358.6" r="5" fill="yellow" />
<circle cx="230.7" cy="354.9" r="5" fill="yellow" />
<circle cx="206" cy="339.4" r="5" fill="yellow" />
<circle cx="165" cy="277.8" r="5" fill="yellow" />
<circle cx="91.7" cy="350.7" r="5" fill="yellow" />
<circle cx="239.5" cy="346.7" r="5" fill="yellow" />
<circle cx="158.1" cy="331.9" r="5" fill="yellow" />
<circle cx="231.4" cy="332.8" r="5" fill="yellow" />
<circle cx="117.9" cy="362.7" r="5" fill="yellow" />
<circle cx="109.9" cy="372.3" r="5" fill="yellow" />
<circle cx="187.4" cy="478.8" r="5" fill="yellow" />
<circle cx="228.7" cy="377.1" r="5" fill="yellow" />
<circle cx="157.6" cy="469.8" r="5" fill="yellow" />
<circle cx="144.5" cy="410.7" r="5" fill="yellow" />
<circle cx="257" cy="332.8" r="5" fill="yellow" />
<circle cx="128.5" cy="355.9" r="5" fill="yellow" />
<circle cx="139.85" cy="365.526" r="10" fill="black" />
<circle cx="720.5" cy="851.1" r="5" fill="gray" />
<circle cx="680.5" cy="815.1" r="5" fill="gray" />
<circle cx="626.4" cy="880.4" r="5" fill="gray" />
<circle cx="690.2" cy="761.8" r="5" fill="gray" />
<circle cx="722.4" cy="887" r="5" fill="gray" />
<circle cx="701" cy="807.6" r="5" fill="gray" />
<circle cx="757.5" cy="927.1" r="5" fill="gray" />
<circle cx="616.2" cy="848.2" r="5" fill="gray" />
<circle cx="717.8" cy="896.6" r="5" fill="gray" />
<circle cx="734.8" cy="808.8" r="5" fill="gray" />
<circle cx="680.7" cy="773.1" r="5" fill="gray" />
<circle cx="707.5" cy="834.3" r="5" fill="gray" />
<circle cx="630.1" cy="853.7" r="5" fill="gray" />
<circle cx="742.6" cy="816.2" r="5" fill="gray" />
<circle cx="649" cy="853.6" r="5" fill="gray" />
<circle cx="659.2" cy="897.8" r="5" fill="gray" />
<circle cx="697.6" cy="912.2" r="5" fill="gray" />
<circle cx="667.1" cy="799.1" r="5" fill="gray" />
<circle cx="723.4" cy="818.6" r="5" fill="gray" />
<circle cx="631.4" cy="815.2" r="5" fill="gray" />
<circle cx="641" cy="892" r="5" fill="gray" />
<circle cx="676.7" cy="949.9" r="5" fill="gray" />
<circle cx="749.8" cy="853" r="5" fill="gray" />
<circle cx="660.1" cy="829.7" r="5" fill="gray" />
<circle cx="672.7" cy="902.1" r="5" fill="gray" />
<circle cx="726.3" cy="805.3" r="5" fill="gray" />
<circle cx="730" cy="869.4" r="5" fill="gray" />
<circle cx="703.1" cy="891.7" r="5" fill="gray" />
<circle cx="735.8" cy="772.6" r="5" fill="gray" />
<circle cx="681.2" cy="861.2" r="5" fill="gray" />
<circle cx="748" cy="872" r="5" fill="gray" />
<circle cx="641.9" cy="877.7" r="5" fill="gray" />
<circle cx="700.6" cy="895.2" r="5" fill="gray" />
<circle cx="648.2" cy="841.2" r="5" fill="gray" />
<circle cx="605.8" cy="956.8" r="5" fill="gray" />
<circle cx="662.2" cy="840.2" r="5" fill="gray" />
<circle cx="733.6" cy="824.8" r="5" fill="gray" />
<circle cx="675.1" cy="943.7" r="5" fill="gray" />
<circle cx="713.2" cy="807" r="5" fill="gray" />
<circle cx="653.9" cy="842.9" r="5" fill="gray" />
<circle cx="744.8" cy="802.6" r="5" fill="gray" />
<circle cx="656.9" cy="949.9" r="5" fill="gray" />
<circle cx="668.7" cy="835.3" r="5" fill="gray" />
<circle cx="655" cy="956.6" r="5" fill="gray" />
<circle cx="672" cy="796.4" r="5" fill="gray" />
<circle cx="732.7" cy="778.9" r="5" fill="gray" />
<circle cx="665" cy="839.2" r="5" fill="gray" />
<circle cx="682.1" cy="856.3" r="5" fill="gray" />
<circle cx="655.3" cy="873.7" r="5" fill="gray" />
<circle cx="656.3" cy="805.5" r="5" fill="gray" />
<circle cx="608.1" cy="900.3" r="5" fill="gray" />
<circle cx="652.9" cy="810.7" r="5" fill="gray" />
<circle cx="728.2" cy="839.6" r="5" fill="gray" />
<circle cx="721.3" cy="841.7" r="5" fill="gray" />
<circle cx="605.6" cy="857.2" r="5" fill="gray" />
<circle cx="622.7" cy="858.5" r="5" fill="gray" />
<circle cx="670.6" cy="945.8" r="5" fill="gray" />
<circle cx="682.689" cy="854.984" r="10" fill="black" />
<circle cx="453.7" cy="948.7" r="5" fill="pink" />
<circle cx="308.3" cy="741.7" r="5" fill="pink" />
<circle cx="575.6" cy="828.4" r="5" fill="pink" />
<circle cx="534.2" cy="805.4" r="5" fill="pink" />
<circle cx="493" cy="796.8" r="5" fill="pink" />
<circle cx="451" cy="874.6" r="5" fill="pink" />
<circle cx="479.8" cy="1002.6" r="5" fill="pink" />
<circle cx="499.1" cy="1005.9" r="5" fill="pink" />
<circle cx="236" cy="912.4" r="5" fill="pink" />
<circle cx="555.3" cy="906.9" r="5" fill="pink" />
<circle cx="578.5" cy="885.3" r="5" fill="pink" />
<circle cx="504.2" cy="816.2" r="5" fill="pink" />
<circle cx="522.4" cy="781.4" r="5" fill="pink" />
<circle cx="529.8" cy="894.6" r="5" fill="pink" />
<circle cx="522.7" cy="866.9" r="5" fill="pink" />
<circle cx="580.1" cy="822.3" r="5" fill="pink" />
<circle cx="553.8" cy="760.4" r="5" fill="pink" />
<circle cx="593.9" cy="789.1" r="5" fill="pink" />
<circle cx="576.2" cy="827.2" r="5" fill="pink" />
<circle cx="547.5" cy="853.9" r="5" fill="pink" />
<circle cx="514.2" cy="787.2" r="5" fill="pink" />
<circle cx="510.1" cy="741.3" r="5" fill="pink" />
<circle cx="565.9" cy="798.3" r="5" fill="pink" />
<circle cx="572.3" cy="823.1" r="5" fill="pink" />
<circle cx="569.1" cy="771.3" r="5" fill="pink" />
<circle cx="515.8" cy="795.8" r="5" fill="pink" />
<circle cx="554.1" cy="842.7" r="5" fill="pink" />
<circle cx="537.3" cy="790.9" r="5" fill="pink" />
<circle cx="595.1" cy="795.1" r="5" fill="pink" />
<circle cx="435.4" cy="900.8" r="5" fill="pink" />
<circle cx="556.6" cy="783.6" r="5" fill="pink" />
<circle cx="573.6" cy="872" r="5" fill="pink" />
<circle cx="560.3" cy="760.5" r="5" fill="pink" />
<circle cx="600.3" cy="807.3" r="5" fill="pink" />
<circle cx="557.2" cy="886" r="5" fill="pink" />
<circle cx="522.7" cy="984.7" r="5" fill="pink" />
<circle cx="546.1" cy="852.5" r="5" fill="pink" />
<circle cx="523.816" cy="840.914" r="10" fill="black" />
<circle cx="575.3" cy="635.5" r="5" fill="aqua" />
<circle cx="584.4" cy="604" r="5" fill="aqua" />
<circle cx="573.6" cy="603.4" r="5" fill="aqua" />
<circle cx="531" cy="637.6" r="5" fill="aqua" />
<circle cx="600.5" cy="622.1" r="5" fill="aqua" />
<circle cx="570.9" cy="589.1" r="5" fill="aqua" />
<circle cx="557.6" cy="598.6" r="5" fill="aqua" />
<circle cx="525" cy="657" r="5" fill="aqua" />
<circle cx="505.9" cy="616.3" r="5" fill="aqua" />
<circle cx="601.3" cy="598.5" r="5" fill="aqua" />
<circle cx="561.7" cy="601.3" r="5" fill="aqua" />
<circle cx="485.8" cy="559.4" r="5" fill="aqua" />
<circle cx="522.1" cy="630.5" r="5" fill="aqua" />
<circle cx="530.5" cy="567.1" r="5" fill="aqua" />
<circle cx="556.8" cy="656.4" r="5" fill="aqua" />
<circle cx="575.5" cy="631.5" r="5" fill="aqua" />
<circle cx="590.7" cy="629.5" r="5" fill="aqua" />
<circle cx="555.8" cy="613.988" r="10" fill="black" />
</svg>
